<svg xmlns="http://www.w3.org/2000/svg" width="24" height="24" viewBox="0 0 24 24" fill="none">
                                            <path d="M19.8739 7.98103C19.5301 7.98103 19.2038 8.05711 18.9102 8.19234C18.675 7.16583 17.7549 6.3975 16.658 6.3975C16.3065 6.3975 15.9733 6.47667 15.6748 6.61762C15.4113 5.63128 14.5103 4.90252 13.442 4.90252C13.121 4.90252 12.8152 4.96842 12.5371 5.0872V2.31113C12.5372 1.03673 11.5004 0 10.226 0C8.95165 0 7.91486 1.03673 7.91486 2.31113V13.3079L6.72321 11.5389L6.70455 11.5157C5.81233 10.4066 4.24263 10.1601 3.05346 10.9425C2.43161 11.3516 2.01035 11.9791 1.86719 12.7095C1.72493 13.4354 1.87544 14.171 2.29099 14.7823L6.54391 21.4861L6.55807 21.5076C7.63 23.0682 9.40033 24 11.2937 24H16.0657C19.4399 24 22.1851 21.2549 22.1851 17.8807V10.2921C22.1851 9.01777 21.1483 7.98103 19.8739 7.98103ZM20.7788 17.8807C20.7788 20.4795 18.6646 22.5938 16.0657 22.5938H11.2937C9.86786 22.5938 8.53451 21.8941 7.72432 20.7216L3.47201 14.0188L3.45785 13.9974C3.25211 13.6978 3.17735 13.3365 3.24719 12.9799C3.31708 12.6234 3.52277 12.317 3.82633 12.1173C4.39938 11.7403 5.15351 11.8527 5.59183 12.3765L9.32111 17.9123V2.31113C9.32111 1.81214 9.72705 1.40625 10.226 1.40625C10.725 1.40625 11.1309 1.81214 11.1309 2.31113V10.6528H12.5372V7.21369C12.5372 6.7147 12.9431 6.30881 13.442 6.30881C13.941 6.30881 14.3469 6.7147 14.3469 7.21369V10.6528H15.7532V8.70862C15.7532 8.20964 16.1591 7.80375 16.658 7.80375C17.157 7.80375 17.5629 8.20964 17.5629 8.70862V10.6528H18.9692V10.2922C18.9692 9.79317 19.3751 9.38728 19.874 9.38728C20.373 9.38728 20.7789 9.79317 20.7789 10.2922V17.8807H20.7788Z" fill="#212627"></path>
                                        </svg>